<svg xmlns="http://www.w3.org/2000/svg" width="920" height="284" viewBox="0 0 920 284">
<rect width="100%" height="100%" fill="#ffffff"/>
<text x="22" y="34" fill="#0f172a" font-size="22" font-weight="800">Gap To First KPI Target</text>
<text x="22" y="72" fill="#0f172a" font-size="13">All-prompt iBOLT mention rate</text>
<rect x="330" y="56" width="460" height="20" rx="4" fill="#e2e8f0"/>
<rect x="330" y="56" width="253" height="20" rx="4" fill="#dc2626"/>
<text x="802" y="71" fill="#0f172a" font-size="13" font-weight="700">11</text>
<text x="22" y="106" fill="#0f172a" font-size="13">Non-branded iBOLT mention rate</text>
<rect x="330" y="90" width="460" height="20" rx="4" fill="#e2e8f0"/>
<rect x="330" y="90" width="230" height="20" rx="4" fill="#dc2626"/>
<text x="802" y="105" fill="#0f172a" font-size="13" font-weight="700">10</text>
<text x="22" y="140" fill="#0f172a" font-size="13">Top-3 recommendation rate</text>
<rect x="330" y="124" width="460" height="20" rx="4" fill="#e2e8f0"/>
<rect x="330" y="124" width="207" height="20" rx="4" fill="#dc2626"/>
<text x="802" y="139" fill="#0f172a" font-size="13" font-weight="700">9</text>
<text x="22" y="174" fill="#0f172a" font-size="13">Target-domain citation rate</text>
<rect x="330" y="158" width="460" height="20" rx="4" fill="#e2e8f0"/>
<rect x="330" y="158" width="115" height="20" rx="4" fill="#dc2626"/>
<text x="802" y="173" fill="#0f172a" font-size="13" font-weight="700">5</text>
<text x="22" y="208" fill="#0f172a" font-size="13">Average live page citability score</text>
<rect x="330" y="192" width="460" height="20" rx="4" fill="#e2e8f0"/>
<rect x="330" y="192" width="161" height="20" rx="4" fill="#dc2626"/>
<text x="802" y="207" fill="#0f172a" font-size="13" font-weight="700">7</text>
<text x="22" y="242" fill="#0f172a" font-size="13">Actual catalog product entity rows</text>
<rect x="330" y="226" width="460" height="20" rx="4" fill="#e2e8f0"/>
<rect x="330" y="226" width="299" height="20" rx="4" fill="#dc2626"/>
<text x="802" y="241" fill="#0f172a" font-size="13" font-weight="700">13</text>
</svg>