<svg xmlns="http://www.w3.org/2000/svg" width="940" height="420" viewBox="0 0 940 420">
<rect width="100%" height="100%" fill="#ffffff"/>
<text x="22" y="34" fill="#0f172a" font-size="22" font-weight="800">Mention Quality By Provider And Topic</text>
<text x="22" y="72" fill="#0f172a" font-size="13">restaurant</text>
<rect x="390" y="56" width="390" height="20" rx="4" fill="#e2e8f0"/>
<rect x="390" y="56" width="265" height="20" rx="4" fill="#2563eb"/>
<text x="792" y="71" fill="#0f172a" font-size="13" font-weight="700">68</text>
<text x="22" y="106" fill="#0f172a" font-size="13">delivery</text>
<rect x="390" y="90" width="390" height="20" rx="4" fill="#e2e8f0"/>
<rect x="390" y="90" width="339" height="20" rx="4" fill="#2563eb"/>
<text x="792" y="105" fill="#0f172a" font-size="13" font-weight="700">87</text>
<text x="22" y="140" fill="#0f172a" font-size="13">restaurant</text>
<rect x="390" y="124" width="390" height="20" rx="4" fill="#e2e8f0"/>
<rect x="390" y="124" width="332" height="20" rx="4" fill="#2563eb"/>
<text x="792" y="139" fill="#0f172a" font-size="13" font-weight="700">85</text>
<text x="22" y="174" fill="#0f172a" font-size="13">delivery</text>
<rect x="390" y="158" width="390" height="20" rx="4" fill="#e2e8f0"/>
<rect x="390" y="158" width="277" height="20" rx="4" fill="#2563eb"/>
<text x="792" y="173" fill="#0f172a" font-size="13" font-weight="700">71</text>
<text x="22" y="208" fill="#0f172a" font-size="13">restaurant</text>
<rect x="390" y="192" width="390" height="20" rx="4" fill="#e2e8f0"/>
<rect x="390" y="192" width="265" height="20" rx="4" fill="#2563eb"/>
<text x="792" y="207" fill="#0f172a" font-size="13" font-weight="700">68</text>
<text x="22" y="242" fill="#0f172a" font-size="13">warehouse</text>
<rect x="390" y="226" width="390" height="20" rx="4" fill="#e2e8f0"/>
<rect x="390" y="226" width="261" height="20" rx="4" fill="#2563eb"/>
<text x="792" y="241" fill="#0f172a" font-size="13" font-weight="700">67</text>
<text x="22" y="276" fill="#0f172a" font-size="13">fleet</text>
<rect x="390" y="260" width="390" height="20" rx="4" fill="#e2e8f0"/>
<rect x="390" y="260" width="246" height="20" rx="4" fill="#2563eb"/>
<text x="792" y="275" fill="#0f172a" font-size="13" font-weight="700">63</text>
<text x="22" y="310" fill="#0f172a" font-size="13">delivery</text>
<rect x="390" y="294" width="390" height="20" rx="4" fill="#e2e8f0"/>
<rect x="390" y="294" width="187" height="20" rx="4" fill="#2563eb"/>
<text x="792" y="309" fill="#0f172a" font-size="13" font-weight="700">48</text>
<text x="22" y="344" fill="#0f172a" font-size="13">comparison</text>
<rect x="390" y="328" width="390" height="20" rx="4" fill="#e2e8f0"/>
<rect x="390" y="328" width="285" height="20" rx="4" fill="#2563eb"/>
<text x="792" y="343" fill="#0f172a" font-size="13" font-weight="700">73</text>
<text x="22" y="378" fill="#0f172a" font-size="13">comparison</text>
<rect x="390" y="362" width="390" height="20" rx="4" fill="#e2e8f0"/>
<rect x="390" y="362" width="265" height="20" rx="4" fill="#2563eb"/>
<text x="792" y="377" fill="#0f172a" font-size="13" font-weight="700">68</text>
</svg>