<svg xmlns="http://www.w3.org/2000/svg" width="900" height="390" viewBox="0 0 900 390" role="img" aria-label="Expanded prompts by source">
<rect width="100%" height="100%" fill="#ffffff"/>
<text x="16" y="31" font-size="20" font-weight="800" fill="#0f172a">Expanded prompts by source</text>
<text x="16" y="75" font-size="13" fill="#334155">blog_inventory_title</text>
<rect x="190" y="58" width="662" height="24" fill="#7c3aed" rx="4"/>
<text x="860" y="75" font-size="13" fill="#111827" font-weight="700">56</text>
<text x="16" y="108" font-size="13" fill="#334155">consumer_buyer_prompt</text>
<rect x="190" y="91" width="437" height="24" fill="#7c3aed" rx="4"/>
<text x="635" y="108" font-size="13" fill="#111827" font-weight="700">37</text>
<text x="16" y="141" font-size="13" fill="#334155">curated_vertical_gap</text>
<rect x="190" y="124" width="414" height="24" fill="#7c3aed" rx="4"/>
<text x="612" y="141" font-size="13" fill="#111827" font-weight="700">35</text>
<text x="16" y="174" font-size="13" fill="#334155">conversational_gap_variant</text>
<rect x="190" y="157" width="248" height="24" fill="#7c3aed" rx="4"/>
<text x="446" y="174" font-size="13" fill="#111827" font-weight="700">21</text>
<text x="16" y="207" font-size="13" fill="#334155">current_visibility_gap</text>
<rect x="190" y="190" width="248" height="24" fill="#7c3aed" rx="4"/>
<text x="446" y="207" font-size="13" fill="#111827" font-weight="700">21</text>
<text x="16" y="240" font-size="13" fill="#334155">unbranded_existing_topic</text>
<rect x="190" y="223" width="154" height="24" fill="#7c3aed" rx="4"/>
<text x="352" y="240" font-size="13" fill="#111827" font-weight="700">13</text>
<text x="16" y="273" font-size="13" fill="#334155">competitor_displacement</text>
<rect x="190" y="256" width="142" height="24" fill="#7c3aed" rx="4"/>
<text x="340" y="273" font-size="13" fill="#111827" font-weight="700">12</text>
<text x="16" y="306" font-size="13" fill="#334155">head_to_head_comparison</text>
<rect x="190" y="289" width="142" height="24" fill="#7c3aed" rx="4"/>
<text x="340" y="306" font-size="13" fill="#111827" font-weight="700">12</text>
</svg>