<svg xmlns="http://www.w3.org/2000/svg" width="1040" height="430" viewBox="0 0 1040 430">
  <rect width="1040" height="430" fill="#ffffff"/>
  <text x="28" y="36" font-size="25" font-weight="900" fill="#0f172a">Product Family Spread Gaps</text>
  <text x="28" y="62" font-size="14" fill="#64748b">Product families that need stronger modules and internal links in priority posts.</text>
  
      <text x="306" y="98.9" text-anchor="end" font-size="14" fill="#334155">AMPS, adapters, balls, and bases</text>
      <rect x="320" y="84" width="650" height="19.8" rx="6" fill="#dc2626"></rect>
      <text x="980" y="98.9" font-size="14" font-weight="800" fill="#0f172a">225</text>
    
      <text x="306" y="130.7" text-anchor="end" font-size="14" fill="#334155">Creator, camera, and streaming mounts</text>
      <rect x="320" y="115.8" width="494" height="19.8" rx="6" fill="#dc2626"></rect>
      <text x="824" y="130.7" font-size="14" font-weight="800" fill="#0f172a">171</text>
    
      <text x="306" y="162.5" text-anchor="end" font-size="14" fill="#334155">Fleet, delivery, and vehicle phone mounts</text>
      <rect x="320" y="147.6" width="321" height="19.8" rx="6" fill="#dc2626"></rect>
      <text x="651" y="162.5" font-size="14" font-weight="800" fill="#0f172a">111</text>
    
      <text x="306" y="194.3" text-anchor="end" font-size="14" fill="#334155">Restaurant POS and tablet security</text>
      <rect x="320" y="179.4" width="303" height="19.8" rx="6" fill="#dc2626"></rect>
      <text x="633" y="194.3" font-size="14" font-weight="800" fill="#0f172a">105</text>
    
      <text x="306" y="226.1" text-anchor="end" font-size="14" fill="#334155">Forklift and warehouse mounts</text>
      <rect x="320" y="211.2" width="300" height="19.8" rx="6" fill="#dc2626"></rect>
      <text x="630" y="226.1" font-size="14" font-weight="800" fill="#0f172a">104</text>
    
      <text x="306" y="257.9" text-anchor="end" font-size="14" fill="#334155">Charging and magnetic phone docks</text>
      <rect x="320" y="243" width="298" height="19.8" rx="6" fill="#dc2626"></rect>
      <text x="628" y="257.9" font-size="14" font-weight="800" fill="#0f172a">103</text>
    
      <text x="306" y="289.7" text-anchor="end" font-size="14" fill="#334155">Cycling, motorcycle, and powersports</text>
      <rect x="320" y="274.8" width="263" height="19.8" rx="6" fill="#dc2626"></rect>
      <text x="593" y="289.7" font-size="14" font-weight="800" fill="#0f172a">91</text>
    
      <text x="306" y="321.5" text-anchor="end" font-size="14" fill="#334155">Marine electronics and fish finder mounts</text>
      <rect x="320" y="306.6" width="246" height="19.8" rx="6" fill="#dc2626"></rect>
      <text x="576" y="321.5" font-size="14" font-weight="800" fill="#0f172a">85</text>
    
      <text x="306" y="353.29999999999995" text-anchor="end" font-size="14" fill="#334155">Barcode scanner and warehouse scanning</text>
      <rect x="320" y="338.4" width="240" height="19.8" rx="6" fill="#dc2626"></rect>
      <text x="570" y="353.29999999999995" font-size="14" font-weight="800" fill="#0f172a">83</text>
    
      <text x="306" y="385.09999999999997" text-anchor="end" font-size="14" fill="#334155">Travel and headrest mounts</text>
      <rect x="320" y="370.2" width="182" height="19.8" rx="6" fill="#dc2626"></rect>
      <text x="512" y="385.09999999999997" font-size="14" font-weight="800" fill="#0f172a">63</text>
    
</svg>