<svg xmlns="http://www.w3.org/2000/svg" width="1100" height="628" viewBox="0 0 1100 628">
  <rect width="100%" height="100%" fill="#f7f9fc"/>
  <text x="290" y="38" font-size="24" font-weight="700" fill="#111827">Prompt Supply By Category</text>
  <text x="290" y="62" font-size="14" fill="#4b5563">Coverage gap compares prompt supply against page, product, and competitor demand.</text>
  
      <text x="274" y="93" text-anchor="end" font-size="14" fill="#172033">fleet</text>
      <rect x="290" y="72" width="765" height="25" rx="6" fill="#19a974"/>
      <text x="1064" y="90" font-size="14" fill="#172033">42</text>

      <text x="274" y="135" text-anchor="end" font-size="14" fill="#172033">fishing</text>
      <rect x="290" y="114" width="656" height="25" rx="6" fill="#19a974"/>
      <text x="955" y="132" font-size="14" fill="#172033">36</text>

      <text x="274" y="177" text-anchor="end" font-size="14" fill="#172033">restaurant</text>
      <rect x="290" y="156" width="565" height="25" rx="6" fill="#19a974"/>
      <text x="864" y="174" font-size="14" fill="#172033">31</text>

      <text x="274" y="219" text-anchor="end" font-size="14" fill="#172033">delivery</text>
      <rect x="290" y="198" width="419" height="25" rx="6" fill="#19a974"/>
      <text x="718" y="216" font-size="14" fill="#172033">23</text>

      <text x="274" y="261" text-anchor="end" font-size="14" fill="#172033">warehouse</text>
      <rect x="290" y="240" width="273" height="25" rx="6" fill="#19a974"/>
      <text x="572" y="258" font-size="14" fill="#172033">15</text>

      <text x="274" y="303" text-anchor="end" font-size="14" fill="#172033">amps/modular</text>
      <rect x="290" y="282" width="237" height="25" rx="6" fill="#19a974"/>
      <text x="536" y="300" font-size="14" fill="#172033">13</text>

      <text x="274" y="345" text-anchor="end" font-size="14" fill="#172033">streaming</text>
      <rect x="290" y="324" width="200" height="25" rx="6" fill="#19a974"/>
      <text x="499" y="342" font-size="14" fill="#172033">11</text>

      <text x="274" y="387" text-anchor="end" font-size="14" fill="#172033">offroad</text>
      <rect x="290" y="366" width="146" height="25" rx="6" fill="#19a974"/>
      <text x="445" y="384" font-size="14" fill="#172033">8</text>

      <text x="274" y="429" text-anchor="end" font-size="14" fill="#172033">education</text>
      <rect x="290" y="408" width="109" height="25" rx="6" fill="#19a974"/>
      <text x="408" y="426" font-size="14" fill="#172033">6</text>

      <text x="274" y="471" text-anchor="end" font-size="14" fill="#172033">cycling</text>
      <rect x="290" y="450" width="109" height="25" rx="6" fill="#19a974"/>
      <text x="408" y="468" font-size="14" fill="#172033">6</text>

      <text x="274" y="513" text-anchor="end" font-size="14" fill="#172033">travel</text>
      <rect x="290" y="492" width="91" height="25" rx="6" fill="#19a974"/>
      <text x="390" y="510" font-size="14" fill="#172033">5</text>

      <text x="274" y="555" text-anchor="end" font-size="14" fill="#172033">kitchen/home</text>
      <rect x="290" y="534" width="91" height="25" rx="6" fill="#19a974"/>
      <text x="390" y="552" font-size="14" fill="#172033">5</text>
</svg>