<svg xmlns="http://www.w3.org/2000/svg" width="940" height="422" viewBox="0 0 940 422" role="img" aria-label="Product-Family Spread Priorities">
    <rect width="940" height="422" rx="18" fill="#fff"/>
    <text x="24" y="32" font-size="21" font-weight="900" fill="#111827">Product-Family Spread Priorities</text>
    <text x="24" y="53" font-size="13" fill="#64748b">Higher means the family needs internal links, product modules, or retest coverage.</text>
    <g>
      <text x="24" y="81" font-size="13" font-weight="800" fill="#111827">AMPS, adapters, balls, and bases</text>
      <rect x="312" y="64" width="570" height="21" rx="10" fill="#e5e7eb"/>
      <rect x="312" y="64" width="570" height="21" rx="10" fill="#0f766e"/>
      <text x="908" y="80" text-anchor="end" font-size="13" font-weight="900" fill="#111827">1305</text>
    </g><g>
      <text x="24" y="115" font-size="13" font-weight="800" fill="#111827">Creator, camera, and streaming mounts</text>
      <rect x="312" y="98" width="570" height="21" rx="10" fill="#e5e7eb"/>
      <rect x="312" y="98" width="435" height="21" rx="10" fill="#0f766e"/>
      <text x="908" y="114" text-anchor="end" font-size="13" font-weight="900" fill="#111827">996</text>
    </g><g>
      <text x="24" y="149" font-size="13" font-weight="800" fill="#111827">Charging and magnetic phone docks</text>
      <rect x="312" y="132" width="570" height="21" rx="10" fill="#e5e7eb"/>
      <rect x="312" y="132" width="360" height="21" rx="10" fill="#0f766e"/>
      <text x="908" y="148" text-anchor="end" font-size="13" font-weight="900" fill="#111827">825</text>
    </g><g>
      <text x="24" y="183" font-size="13" font-weight="800" fill="#111827">Fleet, delivery, and vehicle phone m...</text>
      <rect x="312" y="166" width="570" height="21" rx="10" fill="#e5e7eb"/>
      <rect x="312" y="166" width="354" height="21" rx="10" fill="#0f766e"/>
      <text x="908" y="182" text-anchor="end" font-size="13" font-weight="900" fill="#111827">810</text>
    </g><g>
      <text x="24" y="217" font-size="13" font-weight="800" fill="#111827">Restaurant POS and tablet security</text>
      <rect x="312" y="200" width="570" height="21" rx="10" fill="#e5e7eb"/>
      <rect x="312" y="200" width="342" height="21" rx="10" fill="#0f766e"/>
      <text x="908" y="216" text-anchor="end" font-size="13" font-weight="900" fill="#111827">783</text>
    </g><g>
      <text x="24" y="251" font-size="13" font-weight="800" fill="#111827">Forklift and warehouse mounts</text>
      <rect x="312" y="234" width="570" height="21" rx="10" fill="#e5e7eb"/>
      <rect x="312" y="234" width="309" height="21" rx="10" fill="#0f766e"/>
      <text x="908" y="250" text-anchor="end" font-size="13" font-weight="900" fill="#111827">707</text>
    </g><g>
      <text x="24" y="285" font-size="13" font-weight="800" fill="#111827">Marine electronics and fish finder m...</text>
      <rect x="312" y="268" width="570" height="21" rx="10" fill="#e5e7eb"/>
      <rect x="312" y="268" width="273" height="21" rx="10" fill="#0f766e"/>
      <text x="908" y="284" text-anchor="end" font-size="13" font-weight="900" fill="#111827">625</text>
    </g><g>
      <text x="24" y="319" font-size="13" font-weight="800" fill="#111827">Travel and headrest mounts</text>
      <rect x="312" y="302" width="570" height="21" rx="10" fill="#e5e7eb"/>
      <rect x="312" y="302" width="260" height="21" rx="10" fill="#0f766e"/>
      <text x="908" y="318" text-anchor="end" font-size="13" font-weight="900" fill="#111827">595</text>
    </g><g>
      <text x="24" y="353" font-size="13" font-weight="800" fill="#111827">Cycling, motorcycle, and powersports</text>
      <rect x="312" y="336" width="570" height="21" rx="10" fill="#e5e7eb"/>
      <rect x="312" y="336" width="236" height="21" rx="10" fill="#0f766e"/>
      <text x="908" y="352" text-anchor="end" font-size="13" font-weight="900" fill="#111827">540</text>
    </g><g>
      <text x="24" y="387" font-size="13" font-weight="800" fill="#111827">Barcode scanner and warehouse scanning</text>
      <rect x="312" y="370" width="570" height="21" rx="10" fill="#e5e7eb"/>
      <rect x="312" y="370" width="218" height="21" rx="10" fill="#0f766e"/>
      <text x="908" y="386" text-anchor="end" font-size="13" font-weight="900" fill="#111827">500</text>
    </g>
  </svg>